<svg style="position: absolute; width: 0; height: 0; overflow: hidden;" version="1.1" xmlns="http://www.w3.org/2000/svg" xmlns:xlink="http://www.w3.org/1999/xlink">
<defs>
<symbol id="xmark" viewBox="0 0 512 512">
    <path d="M256 16C123.451 16 16 123.451 16 256S123.451 496 256 496S496 388.549 496 256S388.549 16 256 16ZM256 448C150.131 448 64 361.869 64 256S150.131 64 256 64S448 150.131 448 256S361.869 448 256 448ZM336.969 175.031C327.594 165.656 312.406 165.656 303.031 175.031L256 222.062L208.969 175.031C199.594 165.656 184.406 165.656 175.031 175.031S165.656 199.594 175.031 208.969L222.062 255.998L175.031 303.029C165.656 312.404 165.656 327.592 175.031 336.967C184.404 346.34 199.588 346.348 208.969 336.967L256 289.936L303.031 336.967C312.404 346.34 327.588 346.348 336.969 336.967C346.344 327.592 346.344 312.404 336.969 303.029L289.938 255.998L336.969 208.969C346.344 199.594 346.344 184.406 336.969 175.031Z"></path>
  </symbol>
  <symbol id="check" viewBox="0 0 512 512">
    <path d="M256 16C123.451 16 16 123.451 16 256S123.451 496 256 496S496 388.549 496 256S388.549 16 256 16ZM256 448C150.131 448 64 361.869 64 256S150.131 64 256 64S448 150.131 448 256S361.869 448 256 448ZM335.031 175.031L224 286.062L176.969 239.031C167.594 229.656 152.406 229.656 143.031 239.031S133.656 263.594 143.031 272.969L207.031 336.969C211.719 341.656 217.844 344 224 344S236.281 341.656 240.969 336.969L368.969 208.969C378.344 199.594 378.344 184.406 368.969 175.031S344.406 165.656 335.031 175.031Z"></path>
  </symbol>
  <symbol id="trash" viewBox="0 0 640 512">
    <path d="M256 416C264.844 416 272 408.844 272 400V192C272 183.156 264.844 176 256 176S240 183.156 240 192V400C240 408.844 247.156 416 256 416ZM160 416C168.844 416 176 408.844 176 400V192C176 183.156 168.844 176 160 176S144 183.156 144 192V400C144 408.844 151.156 416 160 416ZM400 80H333.625L299.625 23.25C290.984 8.826 275.406 0 258.592 0H157.408C140.596 0 125.016 8.826 116.375 23.25L82.375 80H16C7.125 80 0 87.125 0 96V112C0 120.875 7.125 128 16 128H32V448C32 483.346 60.654 512 96 512H320C355.348 512 384 483.346 384 448V128H400C408.875 128 416 120.875 416 112V96C416 87.125 408.875 80 400 80ZM155.875 50.875C156.875 49.125 158.875 48 161 48H255C257.125 48 259.125 49.125 260.125 50.875L277.625 80H138.375L155.875 50.875ZM336 448C336 456.836 328.838 464 320 464H96C87.164 464 80 456.836 80 448V128H336V448ZM616 136H472C458.801 136 448 146.799 448 160C448 173.199 458.801 184 472 184H616C629.201 184 640 173.199 640 160C640 146.799 629.201 136 616 136ZM584 264H472C458.801 264 448 274.799 448 288C448 301.199 458.801 312 472 312H584C597.201 312 608 301.199 608 288C608 274.799 597.201 264 584 264ZM520 392H472C458.801 392 448 402.799 448 416C448 429.199 458.801 440 472 440H520C533.201 440 544 429.199 544 416C544 402.799 533.201 392 520 392Z"></path>
  </symbol>
  <symbol id="list" viewBox="0 0 384 512">
    <path d="M104 248C90.746 248 80 258.746 80 272S90.746 296 104 296C117.256 296 128 285.254 128 272S117.256 248 104 248ZM104 344C90.746 344 80 354.746 80 368S90.746 392 104 392C117.256 392 128 381.254 128 368S117.256 344 104 344ZM288 352H176C167.156 352 160 359.156 160 368S167.156 384 176 384H288C296.844 384 304 376.844 304 368S296.844 352 288 352ZM320 64H270.387C262.973 27.484 230.701 0 192 0S121.027 27.484 113.613 64H64C28.654 64 0 92.656 0 128V448C0 483.344 28.654 512 64 512H320C355.346 512 384 483.344 384 448V128C384 92.656 355.346 64 320 64ZM192 48C205.234 48 216 58.766 216 72S205.234 96 192 96S168 85.234 168 72S178.766 48 192 48ZM336 448C336 456.82 328.822 464 320 464H64C55.178 464 48 456.82 48 448V128C48 119.18 55.178 112 64 112H82.264C80.932 117.141 80 122.441 80 128V144C80 152.836 87.164 160 96 160H288C296.836 160 304 152.836 304 144V128C304 122.441 303.068 117.141 301.736 112H320C328.822 112 336 119.18 336 128V448ZM288 256H176C167.156 256 160 263.156 160 272S167.156 288 176 288H288C296.844 288 304 280.844 304 272S296.844 256 288 256Z"></path>
  </symbol>
</defs>
</svg>
